HIERARCHY
ROOT Hips
{
	OFFSET -0.001795 -0.223333 0.028219
	CHANNELS 6 Xposition Yposition Zposition Zrotation Yrotation Xrotation 
	JOINT LeftUpLeg
	{
		OFFSET 0.069520 -0.091406 -0.006815
		CHANNELS 3 Zrotation Yrotation Xrotation
		JOINT LeftLeg
		{
			OFFSET 0.034277 -0.375199 -0.004496
			CHANNELS 3 Zrotation Yrotation Xrotation
			JOINT LeftFoot
			{
				OFFSET -0.013596 -0.397961 -0.043693
				CHANNELS 3 Zrotation Yrotation Xrotation
				JOINT LeftToe
				{
					OFFSET 0.026358 -0.055791 0.119288
					CHANNELS 3 Zrotation Yrotation Xrotation
					End Site
					{
						OFFSET 0.000000 0.000000 0.000000
					}
				}
			}
		}
	}
	JOINT RightUpLeg
	{
		OFFSET -0.067670 -0.090522 -0.004320
		CHANNELS 3 Zrotation Yrotation Xrotation
		JOINT RightLeg
		{
			OFFSET -0.038290 -0.382569 -0.008850
			CHANNELS 3 Zrotation Yrotation Xrotation
			JOINT RightFoot
			{
				OFFSET 0.015774 -0.398415 -0.042312
				CHANNELS 3 Zrotation Yrotation Xrotation
				JOINT RightToe
				{
					OFFSET -0.025372 -0.048144 0.123348
					CHANNELS 3 Zrotation Yrotation Xrotation
					End Site
					{
						OFFSET 0.000000 0.000000 0.000000
					}
				}
			}
		}
	}
	JOINT Spine
	{
		OFFSET -0.002533 0.108963 -0.026696
		CHANNELS 3 Zrotation Yrotation Xrotation
		JOINT Spine1
		{
			OFFSET 0.005487 0.135180 0.001092
			CHANNELS 3 Zrotation Yrotation Xrotation
			JOINT Spine2
			{
				OFFSET 0.001457 0.052922 0.025425
				CHANNELS 3 Zrotation Yrotation Xrotation
				JOINT Neck
				{
					OFFSET -0.002778 0.213870 -0.042857
					CHANNELS 3 Zrotation Yrotation Xrotation
					JOINT Head
					{
						OFFSET 0.005152 0.064970 0.051349
						CHANNELS 3 Zrotation Yrotation Xrotation
						End Site
						{
							OFFSET 0.000000 0.000000 0.000000
						}
					}
				}
				JOINT LeftShoulder
				{
					OFFSET 0.078845 0.121749 -0.034090
					CHANNELS 3 Zrotation Yrotation Xrotation
					JOINT LeftArm
					{
						OFFSET 0.090977 0.030469 -0.008868
						CHANNELS 3 Zrotation Yrotation Xrotation
						JOINT LeftForeArm
						{
							OFFSET 0.259612 -0.012772 -0.027456
							CHANNELS 3 Zrotation Yrotation Xrotation
							JOINT LeftHand
							{
								OFFSET 0.249234 0.008986 -0.001171
								CHANNELS 3 Zrotation Yrotation Xrotation
								End Site
								{
									OFFSET 0.000000 0.000000 0.000000
								}
							}
						}
					}
				}
				JOINT RightShoulder
				{
					OFFSET -0.081759 0.118833 -0.038615
					CHANNELS 3 Zrotation Yrotation Xrotation
					JOINT RightArm
					{
						OFFSET -0.096012 0.032551 -0.009143
						CHANNELS 3 Zrotation Yrotation Xrotation
						JOINT RightForeArm
						{
							OFFSET -0.253742 -0.013329 -0.021401
							CHANNELS 3 Zrotation Yrotation Xrotation
							JOINT RightHand
							{
								OFFSET -0.255298 0.007772 -0.005559
								CHANNELS 3 Zrotation Yrotation Xrotation
								End Site
								{
									OFFSET 0.000000 0.000000 0.000000
								}
							}
						}
					}
				}
			}
		}
	}
}
MOTION
Frames: 8
Frame Time: 0.050000
-0.010783 0.633059 -0.165873 -2.562346 -0.962049 48.982176 18.006432 -3.096431 23.732866 -12.002361 -0.500846 -59.350238 10.562647 20.122235 63.586872 0.000000 0.000000 0.000000 -25.461176 6.166210 22.738340 17.951773 4.819699 -69.023791 -45.861787 -30.317937 103.299489 0.000000 0.000000 0.000000 0.137346 -0.082150 1.565254 -10.766057 -1.468771 -99.484467 -1.230370 -5.718730 101.492957 46.398039 20.724091 -137.191265 0.000000 0.000000 0.000000 -18.137841 0.331679 3.506588 -36.192805 -20.763967 -11.030194 -65.609342 62.947630 -37.280332 0.000000 0.000000 0.000000 21.699963 -0.598676 0.316334 34.025120 1.570771 -13.147854 39.823457 -75.158500 -33.352049 0.000000 0.000000 0.000000 
-0.010998 0.632124 -0.166275 -2.536655 -0.752348 48.818502 18.492554 -3.281945 23.887312 -12.406579 -0.721495 -59.889793 11.293488 20.583345 65.926274 0.000000 0.000000 0.000000 -25.416319 6.077829 22.555456 18.490013 4.938170 -68.341966 -47.455331 -30.847843 103.100524 0.000000 0.000000 0.000000 0.389283 -0.128147 1.537429 -9.877141 -1.143777 -99.206831 -1.349795 -4.927730 100.969436 49.137049 21.439565 -136.056806 0.000000 0.000000 0.000000 -17.907583 -0.557796 3.778754 -35.727167 -20.311060 -10.897171 -64.613067 62.841858 -37.173538 0.000000 0.000000 0.000000 21.596246 0.184670 0.930029 33.837468 2.627564 -12.773887 46.120575 -75.088669 -38.405949 0.000000 0.000000 0.000000 
-0.011640 0.631548 -0.166592 -2.279146 -0.496852 48.734957 18.835846 -3.427544 23.775591 -12.858040 -1.001754 -60.162394 12.369921 21.196660 67.667435 0.000000 0.000000 0.000000 -25.059305 5.891070 22.543983 17.909204 4.537365 -68.403613 -48.349692 -30.641840 104.584576 0.000000 0.000000 0.000000 0.245803 -0.103479 1.537610 -9.733391 -1.280214 -98.505890 -1.410025 -5.363354 100.167675 47.663771 21.419907 -136.481813 0.000000 0.000000 0.000000 -17.817908 -1.046794 4.025505 -35.524224 -20.610513 -10.637351 -64.358844 63.298081 -37.438627 0.000000 0.000000 0.000000 21.406092 0.862812 1.189301 34.011750 3.311867 -12.507387 48.421540 -74.889244 -40.252258 0.000000 0.000000 0.000000 
-0.012460 0.631057 -0.166880 -2.294128 -0.573078 48.807966 19.181085 -3.527753 23.951926 -13.010658 -1.012957 -60.566467 10.648016 20.290846 68.524857 0.000000 0.000000 0.000000 -24.914849 5.840071 22.311275 17.684275 4.438238 -68.171348 -49.477115 -30.430380 106.131244 0.000000 0.000000 0.000000 0.231560 -0.106430 1.657413 -9.441119 -1.052823 -98.350066 -1.613560 -5.433791 99.560423 33.550582 18.262671 -140.794631 0.000000 0.000000 0.000000 -17.422459 -1.629584 4.224171 -35.884213 -20.808018 -10.376441 -66.324072 63.983869 -39.229231 0.000000 0.000000 0.000000 20.943420 1.360725 1.367041 34.696055 4.583040 -12.269253 53.580978 -74.748052 -44.167080 0.000000 0.000000 0.000000 
-0.013147 0.630572 -0.167076 -2.610886 -1.067213 48.803353 19.017878 -3.387966 24.026044 -12.752979 -0.725273 -60.132139 9.349288 19.562198 67.711447 0.000000 0.000000 0.000000 -25.137702 5.957778 21.797937 17.725658 4.626635 -67.635646 -49.812777 -30.264304 106.772213 0.000000 0.000000 0.000000 -0.059356 -0.048288 1.620144 -8.557359 -0.264452 -97.057194 -1.888964 -5.232457 97.802597 27.608480 16.609841 -141.584032 0.000000 0.000000 0.000000 -17.348865 -2.060061 4.357357 -36.174660 -20.539554 -10.060355 -69.070324 64.471136 -41.797828 0.000000 0.000000 0.000000 20.922331 1.735041 1.407003 35.377982 5.178518 -12.009198 55.149529 -74.250895 -44.924001 0.000000 0.000000 0.000000 
-0.013526 0.630604 -0.167129 -3.018549 -1.525511 48.751106 18.786128 -3.235553 24.272149 -12.520817 -0.458150 -59.869171 8.885422 19.271271 66.747840 0.000000 0.000000 0.000000 -25.431122 6.089536 21.240835 17.922428 4.877146 -67.013170 -49.819491 -30.289934 106.573498 0.000000 0.000000 0.000000 -0.116354 -0.031271 1.536770 -7.481949 0.593031 -96.730179 -2.200112 -4.687504 97.376647 21.412059 14.305641 -142.321656 0.000000 0.000000 0.000000 -17.274381 -2.429026 4.466186 -36.593310 -20.232425 -10.049817 -73.495989 65.537851 -46.058328 0.000000 0.000000 0.000000 20.839408 2.185398 1.691693 36.030999 5.675440 -12.058098 57.064502 -74.149964 -46.062449 0.000000 0.000000 0.000000 
-0.013698 0.630229 -0.167075 -3.215192 -1.858811 49.102374 18.675073 -3.145351 24.105017 -12.272420 -0.224519 -58.954140 14.613785 22.355891 75.748759 0.000000 0.000000 0.000000 -25.503853 6.144774 20.787621 17.703004 4.847769 -66.518425 -48.465486 -30.447864 104.946386 0.000000 0.000000 0.000000 -0.114452 -0.038141 1.727738 -6.871319 1.114328 -95.984847 -2.590558 -4.505881 96.308959 17.986669 13.276637 -142.826997 0.000000 0.000000 0.000000 -17.425200 -2.415425 4.470618 -37.214180 -20.068040 -9.967813 -77.405500 65.515178 -48.886880 0.000000 0.000000 0.000000 20.746378 2.325969 1.631020 36.890417 5.932266 -12.036130 57.614433 -73.568445 -45.843550 0.000000 0.000000 0.000000 
-0.013738 0.630273 -0.166843 -3.790902 -2.592697 49.015647 18.316572 -2.907006 24.613742 -12.152360 0.061490 -58.614907 21.269331 24.842460 84.622213 0.000000 0.000000 0.000000 -25.788601 6.328224 20.279389 17.554123 5.090145 -66.215155 -48.191380 -30.237611 105.108186 0.000000 0.000000 0.000000 0.047448 -0.054788 1.578392 -5.249108 2.382997 -96.303931 -3.069864 -2.960565 97.067463 24.064041 15.007566 -140.988509 0.000000 0.000000 0.000000 -17.223924 -2.222294 4.221298 -37.627857 -19.743639 -10.272680 -83.585853 65.183830 -53.563364 0.000000 0.000000 0.000000 21.187659 2.157575 1.820006 37.169611 5.960409 -12.399140 57.324791 -73.560789 -45.069544 0.000000 0.000000 0.000000 
